<svg width="344" height="93" viewBox="0 0 344 93" fill="none" xmlns="http://www.w3.org/2000/svg">
<path d="M146.418 64.3075L144.027 56.7081H130.482L128.091 64.3075H121.623L132.31 31.6723H142.387L153.12 64.3075H146.418ZM132.075 51.7196H142.434L137.278 35.2155L132.075 51.7196Z" fill="white"/>
<path d="M169.676 39.3649C170.645 39.3649 171.582 39.4892 172.488 39.7378V45.1926C170.895 44.975 169.66 44.8662 168.786 44.8662C166.786 44.8662 165.301 45.4723 164.333 46.6845C163.395 47.8966 162.927 49.8703 162.927 52.6054V64.3075H156.599L156.646 39.8777H162.458V44.5865C163.895 41.1054 166.301 39.3649 169.676 39.3649Z" fill="white"/>
<path d="M174.835 52.0926C174.835 48.0209 175.928 44.8818 178.116 42.675C180.303 40.4372 183.287 39.3182 187.068 39.3182C190.193 39.3182 192.802 40.1108 194.896 41.6959C197.02 43.2811 198.255 45.5034 198.598 48.3628L192.599 48.8757C192.286 47.3527 191.63 46.1872 190.63 45.3791C189.662 44.5709 188.474 44.1669 187.068 44.1669C185.225 44.1669 183.756 44.8662 182.662 46.2649C181.6 47.6635 181.069 49.6061 181.069 52.0926C181.069 54.5791 181.615 56.5216 182.709 57.9203C183.803 59.3189 185.303 60.0183 187.209 60.0183C188.74 60.0183 189.99 59.5987 190.958 58.7595C191.927 57.8892 192.568 56.677 192.88 55.123L198.927 55.496C198.583 58.4797 197.349 60.7953 195.224 62.4426C193.099 64.0588 190.427 64.8669 187.209 64.8669C183.365 64.8669 180.334 63.7635 178.116 61.5568C175.928 59.35 174.835 56.1953 174.835 52.0926Z" fill="white"/>
<path d="M203.195 64.3075V29.9939H209.476V43.4209C211.226 40.6858 213.945 39.3182 217.632 39.3182C220.444 39.3182 222.553 40.1263 223.959 41.7426C225.397 43.3277 226.115 45.6588 226.115 48.7358V64.3075H219.882V50.6473C219.882 48.5959 219.507 47.0574 218.757 46.0318C218.038 44.975 216.851 44.4466 215.194 44.4466C213.351 44.4466 211.929 45.0838 210.929 46.3581C209.96 47.6014 209.476 49.2953 209.476 51.4399V64.3075H203.195Z" fill="white"/>
<path d="M231.619 36.4277V30.4135H238.228V36.4277H231.619ZM231.807 64.3075V39.8777H238.04V64.3075H231.807Z" fill="white"/>
<path d="M241.965 56.8946L247.731 56.7081C248.043 59.1946 249.949 60.4379 253.449 60.4379C256.73 60.4379 258.37 59.5831 258.37 57.8737C258.37 57.221 258.058 56.677 257.433 56.2419C256.808 55.8068 255.746 55.3716 254.246 54.9365L248.855 53.4912C244.793 52.4034 242.762 50.0412 242.762 46.4047C242.762 43.9804 243.7 42.1932 245.575 41.0432C247.449 39.8932 249.84 39.3182 252.746 39.3182C255.777 39.3182 258.323 39.9554 260.386 41.2297C262.448 42.473 263.62 44.4 263.901 47.0108L258.183 47.2905C257.995 46.1405 257.417 45.2703 256.449 44.6797C255.48 44.0581 254.246 43.7473 252.746 43.7473C251.527 43.7162 250.59 43.9182 249.934 44.3534C249.277 44.7885 248.949 45.4101 248.949 46.2182C248.949 47.4615 250.09 48.3939 252.371 49.0155L257.808 50.4608C262.276 51.6108 264.51 53.973 264.51 57.5473C264.51 59.9716 263.479 61.8054 261.417 63.0487C259.386 64.2608 256.667 64.8669 253.261 64.8669C246.168 64.8669 242.403 62.2095 241.965 56.8946Z" fill="white"/>
<path d="M268.603 36.4277V30.4135H275.212V36.4277H268.603ZM268.791 64.3075V39.8777H275.025V64.3075H268.791Z" fill="white"/>
<path d="M280.871 64.3075V39.8777H286.73V44.1669C288.355 40.9345 291.214 39.3182 295.308 39.3182C298.12 39.3182 300.229 40.1263 301.635 41.7426C303.073 43.3277 303.791 45.6588 303.791 48.7358V64.3075H297.557V50.6473C297.557 48.5959 297.182 47.0574 296.432 46.0318C295.714 44.975 294.526 44.4466 292.87 44.4466C291.027 44.4466 289.605 45.0838 288.605 46.3581C287.636 47.6014 287.152 49.2953 287.152 51.4399V64.3075H280.871Z" fill="white"/>
<path d="M308.264 57.6406C308.264 53.1338 311.701 50.5541 318.575 49.9014L324.997 49.2486V48.0365C324.997 46.7311 324.606 45.6899 323.825 44.9128C323.044 44.1358 321.856 43.7473 320.263 43.7473C318.857 43.7473 317.7 44.0581 316.794 44.6797C315.919 45.3013 315.435 46.2182 315.341 47.4304H309.623C309.717 44.602 310.748 42.5507 312.716 41.2763C314.685 39.9709 317.2 39.3182 320.263 39.3182C323.794 39.3182 326.512 40.1574 328.418 41.8358C330.324 43.5142 331.277 46.0162 331.277 49.3419V64.3075H325.419V59.8784C323.7 63.2041 320.716 64.8669 316.466 64.8669C313.81 64.8669 311.779 64.1987 310.373 62.8622C308.967 61.5257 308.264 59.7851 308.264 57.6406ZM314.498 57.3142C314.498 58.2777 314.826 59.0547 315.482 59.6453C316.169 60.2358 317.169 60.5311 318.482 60.5311C320.419 60.5311 321.981 59.925 323.169 58.7128C324.387 57.4696 324.997 55.9466 324.997 54.1439V53.0716L319.372 53.6311C316.122 53.9419 314.498 55.1696 314.498 57.3142Z" fill="white"/>
<path d="M336.805 29.9939H343.086V64.3075H336.805V29.9939Z" fill="white"/>
<path d="M20.3402 0.5H73.2247C84.1892 0.5 93.0649 9.25478 93.0649 20.0387V72.1392C93.0649 82.9231 84.1892 91.6779 73.2247 91.6779H20.3402C9.3757 91.6779 0.5 82.9231 0.5 72.1392V20.0387C0.5 9.25478 9.3757 0.5 20.3402 0.5Z" stroke="white"/>
<path d="M23.3202 38.6232L24.9539 33.7223H18.4641L16.7894 38.6232H23.3202Z" fill="white"/>
<path d="M35.5735 33.7223L37.2073 38.6232H43.9671L42.285 33.7223H35.5735Z" fill="white"/>
<path fill-rule="evenodd" clip-rule="evenodd" d="M39.6579 46.089L37.2073 38.6232H43.9671L46.5294 46.089H39.6579ZM16.7894 38.6232L14.2383 46.089H20.8695L23.3202 38.6232H16.7894Z" fill="white"/>
<path d="M35.5254 14.0271H25.1942L18.5753 33.3969H25.061L30.2877 17.5081L35.4674 33.3969H42.1733L35.5254 14.0271Z" fill="white"/>
<path d="M35.5735 33.7223H42.285L42.1733 33.3969H35.4674L35.5735 33.7223Z" fill="white"/>
<path d="M18.4641 33.7223H24.9539L25.061 33.3969H18.5753L18.4641 33.7223Z" fill="white"/>
<path d="M30.2637 38.6232L30.2637 33.7223L28.5278 36.1727L26.7919 38.6232H28.5278H30.2637Z" fill="white"/>
<path d="M30.2637 33.7223L30.2637 38.6232H31.9996H33.7355L31.9996 36.1727L30.2637 33.7223Z" fill="white"/>
<path d="M28.5278 36.1727L30.2637 33.7223H29.3958L28.5278 35.3559V36.1727Z" fill="white"/>
<path d="M30.2637 33.7223L31.9996 36.1727V35.3559L31.1317 33.7223H30.2637Z" fill="white"/>
<path d="M28.5278 36.1727V35.3559L26.7919 38.6232L28.5278 36.1727Z" fill="white"/>
<path d="M31.9996 35.3559V36.1727L33.7355 38.6232L31.9996 35.3559Z" fill="white"/>
<path fill-rule="evenodd" clip-rule="evenodd" d="M79.3268 46.089H72.6263L62.3644 33.6765V28.8672H64.9592C66.9133 28.8672 68.435 28.455 69.5242 27.6305C70.6454 26.8061 71.206 25.5999 71.206 24.0121C71.206 22.4243 70.6454 21.2181 69.5242 20.3937C68.435 19.5692 66.9133 19.157 64.9592 19.157H62.3644V14.0271H65.7761C67.9865 14.0271 69.9727 14.3477 71.7346 14.989C73.4965 15.5997 74.9701 16.6837 76.1554 18.241C77.3407 19.7982 77.9333 21.722 77.9333 24.0121C77.9333 26.7908 77.1645 28.9435 75.6268 30.4703C74.0891 31.997 71.6653 33.249 69.0705 33.6765L79.3268 46.089ZM56.9007 28.8672V19.157V14.0271H50.1733V46.089H56.9007V33.6765V28.8672Z" fill="white"/>
<path fill-rule="evenodd" clip-rule="evenodd" d="M56.9153 64.4548H67.1232V59.2333H56.9153V46.0879H50.188V78.1498H56.9153V64.4548Z" fill="white"/>
<path d="M79.3239 46.0879H72.5965V59.2333H79.3239V46.0879Z" fill="white"/>
<path d="M72.5965 78.1498H79.3239V64.4548H72.5965V78.1498Z" fill="white"/>
<path fill-rule="evenodd" clip-rule="evenodd" d="M46.5095 78.1498H39.6394V71.6105H46.5095V78.1498Z" fill="white"/>
<path fill-rule="evenodd" clip-rule="evenodd" d="M20.9656 59.2333V52.6364H27.6469V46.0879L20.9656 46.0879V52.6364H14.2383V59.2333V64.4548V71.6105V78.1498H20.9656V71.6105V64.4548V59.2333ZM33.1207 52.6364V46.0879L39.6394 46.0879V52.6364H33.1207ZM46.5095 52.6364H39.6394V52.6606H46.5095V52.6364ZM46.5095 46.0879L46.5295 46.0879V52.6364H46.5095V46.0879Z" fill="white"/>
<path d="M46.5095 46.0879H39.6394V52.6364H46.5095V46.0879Z" fill="white"/>
<path d="M20.9656 46.0879H14.2383V52.6364H20.9656V46.0879Z" fill="white"/>
<path d="M39.6394 59.2333H46.5095V52.6606H39.6394V59.2333Z" fill="white"/>
<path d="M46.5095 64.4548H39.6394V71.6105H46.5095V64.4548Z" fill="white"/>
<path d="M20.9656 71.6105V78.1498L27.6469 78.1498V71.6105H20.9656Z" fill="white"/>
<path d="M39.6394 78.1498V71.6105H33.1207V78.1498L39.6394 78.1498Z" fill="white"/>
</svg>
