<svg width="338" height="93" viewBox="0 0 338 93" fill="none" xmlns="http://www.w3.org/2000/svg">
<path d="M144.248 64.3075L141.893 56.7081H128.548L126.193 64.3075H119.82L130.348 31.6723H140.276L150.851 64.3075H144.248ZM130.118 51.7196H140.323L135.243 35.2155L130.118 51.7196Z" fill="black"/>
<path d="M167.161 39.3649C168.115 39.3649 169.039 39.4892 169.932 39.7378V45.1926C168.362 44.975 167.146 44.8662 166.284 44.8662C164.313 44.8662 162.851 45.4723 161.897 46.6845C160.973 47.8966 160.512 49.8703 160.512 52.6054V64.3075H154.278L154.324 39.8777H160.05V44.5865C161.466 41.1054 163.836 39.3649 167.161 39.3649Z" fill="black"/>
<path d="M172.243 52.0926C172.243 48.0209 173.321 44.8818 175.476 42.675C177.63 40.4372 180.57 39.3182 184.295 39.3182C187.374 39.3182 189.944 40.1108 192.007 41.6959C194.1 43.2811 195.316 45.5034 195.655 48.3628L189.744 48.8757C189.436 47.3527 188.79 46.1872 187.805 45.3791C186.85 44.5709 185.681 44.1669 184.295 44.1669C182.479 44.1669 181.032 44.8662 179.955 46.2649C178.908 47.6635 178.385 49.6061 178.385 52.0926C178.385 54.5791 178.923 56.5216 180.001 57.9203C181.078 59.3189 182.556 60.0183 184.434 60.0183C185.942 60.0183 187.174 59.5987 188.128 58.7595C189.082 57.8892 189.713 56.677 190.021 55.123L195.978 55.496C195.639 58.4797 194.423 60.7953 192.33 62.4426C190.237 64.0588 187.605 64.8669 184.434 64.8669C180.647 64.8669 177.661 63.7635 175.476 61.5568C173.321 59.35 172.243 56.1953 172.243 52.0926Z" fill="black"/>
<path d="M200.183 64.3075V29.9939H206.371V43.4209C208.095 40.6858 210.773 39.3182 214.406 39.3182C217.176 39.3182 219.254 40.1263 220.639 41.7426C222.056 43.3277 222.764 45.6588 222.764 48.7358V64.3075H216.622V50.6473C216.622 48.5959 216.253 47.0574 215.514 46.0318C214.806 44.975 213.636 44.4466 212.005 44.4466C210.188 44.4466 208.788 45.0838 207.803 46.3581C206.848 47.6014 206.371 49.2953 206.371 51.4399V64.3075H200.183Z" fill="black"/>
<path d="M228.186 36.4277V30.4135H234.697V36.4277H228.186ZM228.37 64.3075V39.8777H234.512V64.3075H228.37Z" fill="black"/>
<path d="M238.379 56.8946L244.058 56.7081C244.366 59.1946 246.244 60.4379 249.692 60.4379C252.924 60.4379 254.54 59.5831 254.54 57.8737C254.54 57.221 254.233 56.677 253.617 56.2419C253.001 55.8068 251.955 55.3716 250.477 54.9365L245.167 53.4912C241.165 52.4034 239.164 50.0412 239.164 46.4047C239.164 43.9804 240.087 42.1932 241.934 41.0432C243.781 39.8932 246.136 39.3182 248.999 39.3182C251.985 39.3182 254.494 39.9554 256.526 41.2297C258.558 42.473 259.712 44.4 259.989 47.0108L254.356 47.2905C254.171 46.1405 253.601 45.2703 252.647 44.6797C251.693 44.0581 250.477 43.7473 248.999 43.7473C247.799 43.7162 246.875 43.9182 246.229 44.3534C245.582 44.7885 245.259 45.4101 245.259 46.2182C245.259 47.4615 246.383 48.3939 248.63 49.0155L253.986 50.4608C258.388 51.6108 260.589 53.973 260.589 57.5473C260.589 59.9716 259.574 61.8054 257.542 63.0487C255.541 64.2608 252.863 64.8669 249.507 64.8669C242.519 64.8669 238.81 62.2095 238.379 56.8946Z" fill="black"/>
<path d="M264.622 36.4277V30.4135H271.132V36.4277H264.622ZM264.806 64.3075V39.8777H270.948V64.3075H264.806Z" fill="black"/>
<path d="M276.708 64.3075V39.8777H282.48V44.1669C284.081 40.9345 286.897 39.3182 290.93 39.3182C293.701 39.3182 295.779 40.1263 297.164 41.7426C298.58 43.3277 299.288 45.6588 299.288 48.7358V64.3075H293.147V50.6473C293.147 48.5959 292.777 47.0574 292.038 46.0318C291.33 44.975 290.16 44.4466 288.529 44.4466C286.713 44.4466 285.312 45.0838 284.327 46.3581C283.373 47.6014 282.895 49.2953 282.895 51.4399V64.3075H276.708Z" fill="black"/>
<path d="M303.694 57.6406C303.694 53.1338 307.08 50.5541 313.853 49.9014L320.179 49.2486V48.0365C320.179 46.7311 319.794 45.6899 319.025 44.9128C318.255 44.1358 317.085 43.7473 315.515 43.7473C314.13 43.7473 312.991 44.0581 312.098 44.6797C311.236 45.3013 310.759 46.2182 310.667 47.4304H305.033C305.126 44.602 306.142 42.5507 308.081 41.2763C310.02 39.9709 312.498 39.3182 315.515 39.3182C318.994 39.3182 321.672 40.1574 323.55 41.8358C325.428 43.5142 326.367 46.0162 326.367 49.3419V64.3075H320.595V59.8784C318.902 63.2041 315.962 64.8669 311.775 64.8669C309.158 64.8669 307.157 64.1987 305.772 62.8622C304.387 61.5257 303.694 59.7851 303.694 57.6406ZM309.836 57.3142C309.836 58.2777 310.159 59.0547 310.805 59.6453C311.483 60.2358 312.468 60.5311 313.761 60.5311C315.669 60.5311 317.208 59.925 318.378 58.7128C319.579 57.4696 320.179 55.9466 320.179 54.1439V53.0716L314.638 53.6311C311.436 53.9419 309.836 55.1696 309.836 57.3142Z" fill="black"/>
<path d="M331.813 29.9939H338V64.3075H331.813V29.9939Z" fill="black"/>
<path d="M20.0387 0.5H72.1392C82.9301 0.5 91.6779 9.24776 91.6779 20.0387V72.1392C91.6779 82.9301 82.9301 91.6779 72.1392 91.6779H20.0387C9.24776 91.6779 0.5 82.9301 0.5 72.1392V20.0387C0.5 9.24776 9.24776 0.5 20.0387 0.5Z" fill="black" stroke="black"/>
<path d="M22.9741 38.6233L24.5837 33.7224H18.1901L16.5402 38.6233H22.9741Z" fill="#FFCC50"/>
<path d="M35.0458 33.7224L36.6553 38.6233H43.3149L41.6578 33.7224H35.0458Z" fill="#FFCC50"/>
<path fill-rule="evenodd" clip-rule="evenodd" d="M39.0697 46.0891L36.6553 38.6233H43.3149L45.8393 46.0891H39.0697ZM16.5402 38.6233L14.0269 46.0891H20.5598L22.9741 38.6233H16.5402Z" fill="#FFCC50"/>
<path d="M34.9984 14.0272H24.8204L18.2996 33.397H24.6891L29.8384 17.5082L34.9413 33.397H41.5478L34.9984 14.0272Z" fill="#FFCC50"/>
<path d="M35.0458 33.7224H41.6578L41.5478 33.397H34.9413L35.0458 33.7224Z" fill="#FFCC50"/>
<path d="M18.1901 33.7224H24.5837L24.6891 33.397H18.2996L18.1901 33.7224Z" fill="#FFCC50"/>
<path d="M29.8147 38.6233L29.8147 33.7224L28.1046 36.1728L26.3944 38.6233H28.1046H29.8147Z" fill="#FFCC50"/>
<path d="M29.8147 33.7224L29.8147 38.6233H31.5249H33.235L31.5249 36.1728L29.8147 33.7224Z" fill="#FFCC50"/>
<path d="M28.1046 36.1728L29.8147 33.7224H28.9596L28.1046 35.356V36.1728Z" fill="#FFCC50"/>
<path d="M29.8147 33.7224L31.5249 36.1728V35.356L30.6698 33.7224H29.8147Z" fill="#FFCC50"/>
<path d="M28.1046 36.1728V35.356L26.3944 38.6233L28.1046 36.1728Z" fill="#FFCC50"/>
<path d="M31.5249 35.356V36.1728L33.235 38.6233L31.5249 35.356Z" fill="#FFCC50"/>
<path fill-rule="evenodd" clip-rule="evenodd" d="M78.1505 46.0892H71.5493L61.4395 33.6767V28.8674H63.9959C65.921 28.8674 67.4201 28.4552 68.4932 27.6308C69.5978 26.8063 70.1501 25.6002 70.1501 24.0123C70.1501 22.4245 69.5978 21.2184 68.4932 20.3939C67.4201 19.5695 65.921 19.1573 63.9959 19.1573H61.4395V14.0273H64.8007C66.9783 14.0273 68.935 14.348 70.6708 14.9892C72.4066 15.5999 73.8584 16.6839 75.0261 18.2412C76.1938 19.7985 76.7777 21.7222 76.7777 24.0123C76.7777 26.791 76.0202 28.9438 74.5053 30.4705C72.9905 31.9973 70.6025 33.2492 68.0462 33.6767L78.1505 46.0892ZM56.0568 28.8674V19.1573V14.0273H49.4292V46.0892H56.0568V33.6767V28.8674Z" fill="#FFCC50"/>
<path fill-rule="evenodd" clip-rule="evenodd" d="M56.071 64.4549H66.1275V59.2334H56.071V46.088H49.4434V78.1499H56.071V64.4549Z" fill="#FFCC50"/>
<path d="M78.1473 46.088H71.5197V59.2334H78.1473V46.088Z" fill="#FFCC50"/>
<path d="M71.5197 78.1499H78.1473V64.4549H71.5197V78.1499Z" fill="#FFCC50"/>
<path fill-rule="evenodd" clip-rule="evenodd" d="M45.8197 78.1499H39.0515V71.6107H45.8197V78.1499Z" fill="#FFCC50"/>
<path fill-rule="evenodd" clip-rule="evenodd" d="M20.6544 59.2334V52.6365H27.2367V46.088L20.6544 46.088V52.6365H14.0269V59.2334V64.4549V71.6107V78.1499H20.6544V71.6107V64.4549V59.2334ZM32.6293 52.6365V46.088L39.0515 46.088V52.6365H32.6293ZM45.8197 52.6365H39.0515V52.6607H45.8197V52.6365ZM45.8197 46.088L45.8394 46.088V52.6365H45.8197V46.088Z" fill="#FFCC50"/>
<path d="M45.8197 46.088H39.0515V52.6365H45.8197V46.088Z" fill="#FFCC50"/>
<path d="M20.6544 46.088H14.0269V52.6365H20.6544V46.088Z" fill="#FFCC50"/>
<path d="M39.0515 59.2334H45.8197V52.6607H39.0515V59.2334Z" fill="#FFCC50"/>
<path d="M45.8197 64.4549H39.0515V71.6107H45.8197V64.4549Z" fill="#FFCC50"/>
<path d="M20.6544 71.6107V78.1499L27.2367 78.1499V71.6107H20.6544Z" fill="#FFCC50"/>
<path d="M39.0515 78.1499V71.6107H32.6293V78.1499L39.0515 78.1499Z" fill="#FFCC50"/>
</svg>
