<svg width="338" height="93" viewBox="0 0 338 93" fill="none" xmlns="http://www.w3.org/2000/svg">
<path d="M144.248 64.3075L141.893 56.7081H128.548L126.193 64.3075H119.82L130.348 31.6723H140.276L150.851 64.3075H144.248ZM130.118 51.7196H140.323L135.243 35.2155L130.118 51.7196Z" fill="black"/>
<path d="M167.161 39.3649C168.115 39.3649 169.039 39.4892 169.932 39.7378V45.1926C168.362 44.975 167.146 44.8662 166.284 44.8662C164.313 44.8662 162.851 45.4723 161.897 46.6845C160.973 47.8966 160.512 49.8703 160.512 52.6054V64.3075H154.278L154.324 39.8777H160.05V44.5865C161.466 41.1054 163.836 39.3649 167.161 39.3649Z" fill="black"/>
<path d="M172.243 52.0926C172.243 48.0209 173.321 44.8818 175.476 42.675C177.63 40.4372 180.57 39.3182 184.295 39.3182C187.374 39.3182 189.944 40.1108 192.007 41.6959C194.1 43.2811 195.316 45.5034 195.655 48.3628L189.744 48.8757C189.436 47.3527 188.79 46.1872 187.805 45.3791C186.85 44.5709 185.681 44.1669 184.295 44.1669C182.479 44.1669 181.032 44.8662 179.955 46.2649C178.908 47.6635 178.385 49.6061 178.385 52.0926C178.385 54.5791 178.923 56.5216 180.001 57.9203C181.078 59.3189 182.556 60.0183 184.434 60.0183C185.942 60.0183 187.174 59.5987 188.128 58.7595C189.082 57.8892 189.713 56.677 190.021 55.123L195.978 55.496C195.639 58.4797 194.423 60.7953 192.33 62.4426C190.237 64.0588 187.605 64.8669 184.434 64.8669C180.647 64.8669 177.661 63.7635 175.476 61.5568C173.321 59.35 172.243 56.1953 172.243 52.0926Z" fill="black"/>
<path d="M200.183 64.3075V29.9939H206.371V43.4209C208.095 40.6858 210.773 39.3182 214.406 39.3182C217.176 39.3182 219.254 40.1263 220.639 41.7426C222.056 43.3277 222.764 45.6588 222.764 48.7358V64.3075H216.622V50.6473C216.622 48.5959 216.253 47.0574 215.514 46.0318C214.806 44.975 213.636 44.4466 212.005 44.4466C210.188 44.4466 208.788 45.0838 207.803 46.3581C206.848 47.6014 206.371 49.2953 206.371 51.4399V64.3075H200.183Z" fill="black"/>
<path d="M228.186 36.4277V30.4135H234.697V36.4277H228.186ZM228.37 64.3075V39.8777H234.512V64.3075H228.37Z" fill="black"/>
<path d="M238.379 56.8946L244.058 56.7081C244.366 59.1946 246.244 60.4379 249.692 60.4379C252.924 60.4379 254.54 59.5831 254.54 57.8737C254.54 57.221 254.233 56.677 253.617 56.2419C253.001 55.8068 251.955 55.3716 250.477 54.9365L245.167 53.4912C241.165 52.4034 239.164 50.0412 239.164 46.4047C239.164 43.9804 240.087 42.1932 241.934 41.0432C243.781 39.8932 246.136 39.3182 248.999 39.3182C251.985 39.3182 254.494 39.9554 256.526 41.2297C258.558 42.473 259.712 44.4 259.989 47.0108L254.356 47.2905C254.171 46.1405 253.601 45.2703 252.647 44.6797C251.693 44.0581 250.477 43.7473 248.999 43.7473C247.799 43.7162 246.875 43.9182 246.229 44.3534C245.582 44.7885 245.259 45.4101 245.259 46.2182C245.259 47.4615 246.383 48.3939 248.63 49.0155L253.986 50.4608C258.388 51.6108 260.589 53.973 260.589 57.5473C260.589 59.9716 259.574 61.8054 257.542 63.0487C255.541 64.2608 252.863 64.8669 249.507 64.8669C242.519 64.8669 238.81 62.2095 238.379 56.8946Z" fill="black"/>
<path d="M264.622 36.4277V30.4135H271.132V36.4277H264.622ZM264.806 64.3075V39.8777H270.948V64.3075H264.806Z" fill="black"/>
<path d="M276.708 64.3075V39.8777H282.48V44.1669C284.081 40.9345 286.897 39.3182 290.93 39.3182C293.701 39.3182 295.779 40.1263 297.164 41.7426C298.58 43.3277 299.288 45.6588 299.288 48.7358V64.3075H293.147V50.6473C293.147 48.5959 292.777 47.0574 292.038 46.0318C291.33 44.975 290.16 44.4466 288.529 44.4466C286.713 44.4466 285.312 45.0838 284.327 46.3581C283.373 47.6014 282.895 49.2953 282.895 51.4399V64.3075H276.708Z" fill="black"/>
<path d="M303.694 57.6406C303.694 53.1338 307.08 50.5541 313.853 49.9014L320.179 49.2486V48.0365C320.179 46.7311 319.794 45.6899 319.025 44.9128C318.255 44.1358 317.085 43.7473 315.515 43.7473C314.13 43.7473 312.991 44.0581 312.098 44.6797C311.236 45.3013 310.759 46.2182 310.667 47.4304H305.033C305.126 44.602 306.142 42.5507 308.081 41.2763C310.02 39.9709 312.498 39.3182 315.515 39.3182C318.994 39.3182 321.672 40.1574 323.55 41.8358C325.428 43.5142 326.367 46.0162 326.367 49.3419V64.3075H320.595V59.8784C318.902 63.2041 315.962 64.8669 311.775 64.8669C309.158 64.8669 307.157 64.1987 305.772 62.8622C304.387 61.5257 303.694 59.7851 303.694 57.6406ZM309.836 57.3142C309.836 58.2777 310.159 59.0547 310.805 59.6453C311.483 60.2358 312.468 60.5311 313.761 60.5311C315.669 60.5311 317.208 59.925 318.378 58.7128C319.579 57.4696 320.179 55.9466 320.179 54.1439V53.0716L314.638 53.6311C311.436 53.9419 309.836 55.1696 309.836 57.3142Z" fill="black"/>
<path d="M331.813 29.9939H338V64.3075H331.813V29.9939Z" fill="black"/>
<path d="M0 20.0387C0 8.97162 8.97162 0 20.0387 0H72.1392C83.2063 0 92.1779 8.97162 92.1779 20.0387V72.1392C92.1779 83.2063 83.2063 92.1779 72.1392 92.1779H20.0387C8.97162 92.1779 0 83.2063 0 72.1392V20.0387Z" fill="#FFCC50"/>
<path d="M22.9743 38.6233L24.5839 33.7224H18.1903L16.5404 38.6233H22.9743Z" fill="black"/>
<path d="M35.046 33.7224L36.6556 38.6233H43.3152L41.6581 33.7224H35.046Z" fill="black"/>
<path fill-rule="evenodd" clip-rule="evenodd" d="M39.0699 46.0891L36.6556 38.6233H43.3152L45.8395 46.0891H39.0699ZM16.5404 38.6233L14.0271 46.0891H20.56L22.9743 38.6233H16.5404Z" fill="black"/>
<path d="M34.9987 14.0272H24.8206L18.2998 33.397H24.6894L29.8386 17.5082L34.9415 33.397H41.548L34.9987 14.0272Z" fill="black"/>
<path d="M35.046 33.7224H41.6581L41.548 33.397H34.9415L35.046 33.7224Z" fill="black"/>
<path d="M18.1903 33.7224H24.5839L24.6894 33.397H18.2998L18.1903 33.7224Z" fill="black"/>
<path d="M29.815 38.6233L29.815 33.7224L28.1048 36.1728L26.3947 38.6233H28.1048H29.815Z" fill="black"/>
<path d="M29.815 33.7224L29.815 38.6233H31.5251H33.2353L31.5251 36.1728L29.815 33.7224Z" fill="black"/>
<path d="M28.1048 36.1728L29.815 33.7224H28.9599L28.1048 35.356V36.1728Z" fill="black"/>
<path d="M29.815 33.7224L31.5251 36.1728V35.356L30.67 33.7224H29.815Z" fill="black"/>
<path d="M28.1048 36.1728V35.356L26.3947 38.6233L28.1048 36.1728Z" fill="black"/>
<path d="M31.5251 35.356V36.1728L33.2353 38.6233L31.5251 35.356Z" fill="black"/>
<path fill-rule="evenodd" clip-rule="evenodd" d="M78.151 46.0892H71.5498L61.44 33.6767V28.8674H63.9964C65.9215 28.8674 67.4206 28.4552 68.4937 27.6308C69.5983 26.8063 70.1506 25.6002 70.1506 24.0123C70.1506 22.4245 69.5983 21.2184 68.4937 20.3939C67.4206 19.5695 65.9215 19.1573 63.9964 19.1573H61.44V14.0273H64.8012C66.9788 14.0273 68.9355 14.348 70.6713 14.9892C72.4071 15.5999 73.8589 16.6839 75.0266 18.2412C76.1943 19.7985 76.7781 21.7222 76.7781 24.0123C76.7781 26.791 76.0207 28.9438 74.5058 30.4705C72.991 31.9973 70.603 33.2492 68.0467 33.6767L78.151 46.0892ZM56.0573 28.8674V19.1573V14.0273H49.4297V46.0892H56.0573V33.6767V28.8674Z" fill="black"/>
<path fill-rule="evenodd" clip-rule="evenodd" d="M56.0714 64.4549H66.128V59.2334H56.0714V46.088H49.4438V78.1499H56.0714V64.4549Z" fill="black"/>
<path d="M78.1478 46.088H71.5202V59.2334H78.1478V46.088Z" fill="black"/>
<path d="M71.5202 78.1499H78.1478V64.4549H71.5202V78.1499Z" fill="black"/>
<path fill-rule="evenodd" clip-rule="evenodd" d="M45.8202 78.1499H39.0519V71.6107H45.8202V78.1499Z" fill="black"/>
<path fill-rule="evenodd" clip-rule="evenodd" d="M20.6549 59.2334V52.6365H27.2372V46.088L20.6549 46.088V52.6365H14.0273V59.2334V64.4549V71.6107V78.1499H20.6549V71.6107V64.4549V59.2334ZM32.6298 52.6365V46.088L39.0519 46.088V52.6365H32.6298ZM45.8202 52.6365H39.0519V52.6607H45.8202V52.6365ZM45.8202 46.088L45.8399 46.088V52.6365H45.8202V46.088Z" fill="black"/>
<path d="M45.8202 46.088H39.0519V52.6365H45.8202V46.088Z" fill="black"/>
<path d="M20.6549 46.088H14.0273V52.6365H20.6549V46.088Z" fill="black"/>
<path d="M39.0519 59.2334H45.8202V52.6607H39.0519V59.2334Z" fill="black"/>
<path d="M45.8202 64.4549H39.0519V71.6107H45.8202V64.4549Z" fill="black"/>
<path d="M20.6549 71.6107V78.1499L27.2372 78.1499V71.6107H20.6549Z" fill="black"/>
<path d="M39.0519 78.1499V71.6107H32.6298V78.1499L39.0519 78.1499Z" fill="black"/>
</svg>
