<svg width="338" height="93" viewBox="0 0 338 93" fill="none" xmlns="http://www.w3.org/2000/svg">
<path d="M144.248 64.3075L141.893 56.7082H128.548L126.193 64.3075H119.82L130.348 31.6723H140.276L150.851 64.3075H144.248ZM130.118 51.7197H140.323L135.243 35.2156L130.118 51.7197Z" fill="black"/>
<path d="M167.161 39.3649C168.115 39.3649 169.039 39.4892 169.932 39.7379V45.1926C168.362 44.9751 167.146 44.8663 166.284 44.8663C164.313 44.8663 162.851 45.4724 161.897 46.6845C160.973 47.8967 160.512 49.8703 160.512 52.6055V64.3075H154.278L154.324 39.8778H160.05V44.5865C161.466 41.1055 163.836 39.3649 167.161 39.3649Z" fill="black"/>
<path d="M172.243 52.0926C172.243 48.021 173.321 44.8818 175.476 42.6751C177.63 40.4372 180.57 39.3183 184.295 39.3183C187.374 39.3183 189.944 40.1109 192.007 41.696C194.1 43.2811 195.316 45.5034 195.655 48.3629L189.744 48.8757C189.436 47.3528 188.79 46.1872 187.805 45.3791C186.85 44.571 185.681 44.1669 184.295 44.1669C182.479 44.1669 181.032 44.8663 179.955 46.2649C178.908 47.6636 178.385 49.6061 178.385 52.0926C178.385 54.5791 178.923 56.5217 180.001 57.9203C181.078 59.319 182.556 60.0183 184.434 60.0183C185.942 60.0183 187.174 59.5987 188.128 58.7595C189.082 57.8893 189.713 56.6771 190.021 55.123L195.978 55.496C195.639 58.4798 194.423 60.7953 192.33 62.4426C190.237 64.0589 187.605 64.867 184.434 64.867C180.647 64.867 177.661 63.7636 175.476 61.5568C173.321 59.3501 172.243 56.1953 172.243 52.0926Z" fill="black"/>
<path d="M200.183 64.3075V29.994H206.371V43.421C208.095 40.6859 210.773 39.3183 214.406 39.3183C217.176 39.3183 219.254 40.1264 220.639 41.7426C222.056 43.3278 222.764 45.6588 222.764 48.7359V64.3075H216.622V50.6474C216.622 48.596 216.253 47.0575 215.514 46.0318C214.806 44.9751 213.636 44.4467 212.005 44.4467C210.188 44.4467 208.788 45.0838 207.803 46.3582C206.848 47.6014 206.371 49.2953 206.371 51.4399V64.3075H200.183Z" fill="black"/>
<path d="M228.186 36.4277V30.4136H234.697V36.4277H228.186ZM228.37 64.3075V39.8778H234.512V64.3075H228.37Z" fill="black"/>
<path d="M238.379 56.8947L244.058 56.7082C244.366 59.1947 246.244 60.4379 249.692 60.4379C252.924 60.4379 254.54 59.5832 254.54 57.8737C254.54 57.221 254.233 56.6771 253.617 56.242C253.001 55.8068 251.955 55.3717 250.477 54.9366L245.167 53.4913C241.165 52.4034 239.164 50.0413 239.164 46.4048C239.164 43.9805 240.087 42.1933 241.934 41.0433C243.781 39.8933 246.136 39.3183 248.999 39.3183C251.985 39.3183 254.494 39.9555 256.526 41.2298C258.558 42.473 259.712 44.4001 259.989 47.0109L254.356 47.2906C254.171 46.1406 253.601 45.2703 252.647 44.6798C251.693 44.0582 250.477 43.7474 248.999 43.7474C247.799 43.7163 246.875 43.9183 246.229 44.3534C245.582 44.7886 245.259 45.4102 245.259 46.2183C245.259 47.4615 246.383 48.394 248.63 49.0156L253.986 50.4609C258.388 51.6109 260.589 53.973 260.589 57.5474C260.589 59.9717 259.574 61.8055 257.542 63.0487C255.541 64.2609 252.863 64.867 249.507 64.867C242.519 64.867 238.81 62.2095 238.379 56.8947Z" fill="black"/>
<path d="M264.622 36.4277V30.4136H271.132V36.4277H264.622ZM264.806 64.3075V39.8778H270.948V64.3075H264.806Z" fill="black"/>
<path d="M276.708 64.3075V39.8778H282.48V44.1669C284.081 40.9345 286.897 39.3183 290.93 39.3183C293.701 39.3183 295.779 40.1264 297.164 41.7426C298.58 43.3278 299.288 45.6588 299.288 48.7359V64.3075H293.147V50.6474C293.147 48.596 292.777 47.0575 292.038 46.0318C291.33 44.9751 290.16 44.4467 288.529 44.4467C286.713 44.4467 285.312 45.0838 284.327 46.3582C283.373 47.6014 282.895 49.2953 282.895 51.4399V64.3075H276.708Z" fill="black"/>
<path d="M303.694 57.6406C303.694 53.1339 307.08 50.5541 313.853 49.9014L320.179 49.2487V48.0365C320.179 46.7311 319.794 45.6899 319.025 44.9129C318.255 44.1359 317.085 43.7474 315.515 43.7474C314.13 43.7474 312.991 44.0582 312.098 44.6798C311.236 45.3014 310.759 46.2183 310.667 47.4305H305.033C305.126 44.6021 306.142 42.5507 308.081 41.2764C310.02 39.971 312.498 39.3183 315.515 39.3183C318.994 39.3183 321.672 40.1575 323.55 41.8359C325.428 43.5142 326.367 46.0163 326.367 49.342V64.3075H320.595V59.8785C318.902 63.2041 315.962 64.867 311.775 64.867C309.158 64.867 307.157 64.1987 305.772 62.8622C304.387 61.5258 303.694 59.7852 303.694 57.6406ZM309.836 57.3143C309.836 58.2778 310.159 59.0548 310.805 59.6453C311.483 60.2359 312.468 60.5312 313.761 60.5312C315.669 60.5312 317.208 59.9251 318.378 58.7129C319.579 57.4697 320.179 55.9467 320.179 54.144V53.0717L314.638 53.6311C311.436 53.942 309.836 55.1697 309.836 57.3143Z" fill="black"/>
<path d="M331.813 29.994H338V64.3075H331.813V29.994Z" fill="black"/>
<path d="M20.0387 0.5H72.1392C82.9301 0.5 91.6779 9.24776 91.6779 20.0387V72.1392C91.6779 82.9301 82.9301 91.6779 72.1392 91.6779H20.0387C9.24776 91.6779 0.5 82.9301 0.5 72.1392V20.0387C0.5 9.24776 9.24776 0.5 20.0387 0.5Z" stroke="black"/>
<path d="M22.9743 38.6232L24.5839 33.7223H18.1903L16.5404 38.6232H22.9743Z" fill="black"/>
<path d="M35.046 33.7223L36.6556 38.6232H43.3152L41.6581 33.7223H35.046Z" fill="black"/>
<path fill-rule="evenodd" clip-rule="evenodd" d="M39.0699 46.0891L36.6556 38.6232H43.3152L45.8395 46.0891H39.0699ZM16.5404 38.6232L14.0271 46.0891H20.56L22.9743 38.6232H16.5404Z" fill="black"/>
<path d="M34.9987 14.0272H24.8206L18.2998 33.3969H24.6894L29.8386 17.5082L34.9415 33.3969H41.548L34.9987 14.0272Z" fill="black"/>
<path d="M35.046 33.7223H41.6581L41.548 33.3969H34.9415L35.046 33.7223Z" fill="black"/>
<path d="M18.1903 33.7223H24.5839L24.6894 33.3969H18.2998L18.1903 33.7223Z" fill="black"/>
<path d="M29.815 38.6232L29.815 33.7223L28.1048 36.1728L26.3947 38.6232H28.1048H29.815Z" fill="black"/>
<path d="M29.815 33.7223L29.815 38.6232H31.5251H33.2353L31.5251 36.1728L29.815 33.7223Z" fill="black"/>
<path d="M28.1048 36.1728L29.815 33.7223H28.9599L28.1048 35.356V36.1728Z" fill="black"/>
<path d="M29.815 33.7223L31.5251 36.1728V35.356L30.67 33.7223H29.815Z" fill="black"/>
<path d="M28.1048 36.1728V35.356L26.3947 38.6232L28.1048 36.1728Z" fill="black"/>
<path d="M31.5251 35.356V36.1728L33.2353 38.6232L31.5251 35.356Z" fill="black"/>
<path fill-rule="evenodd" clip-rule="evenodd" d="M78.151 46.0891H71.5498L61.44 33.6766V28.8673H63.9964C65.9215 28.8673 67.4206 28.4551 68.4937 27.6306C69.5983 26.8062 70.1506 25.6 70.1506 24.0122C70.1506 22.4244 69.5983 21.2182 68.4937 20.3938C67.4206 19.5694 65.9215 19.1571 63.9964 19.1571H61.44V14.0272H64.8012C66.9788 14.0272 68.9355 14.3478 70.6713 14.9891C72.4071 15.5998 73.8589 16.6838 75.0266 18.2411C76.1943 19.7984 76.7781 21.7221 76.7781 24.0122C76.7781 26.7909 76.0207 28.9436 74.5058 30.4704C72.991 31.9972 70.603 33.2491 68.0467 33.6766L78.151 46.0891ZM56.0573 28.8673V19.1571V14.0272H49.4297V46.0891H56.0573V33.6766V28.8673Z" fill="black"/>
<path fill-rule="evenodd" clip-rule="evenodd" d="M56.0714 64.4548H66.128V59.2333H56.0714V46.088H49.4438V78.1499H56.0714V64.4548Z" fill="black"/>
<path d="M78.1478 46.088H71.5202V59.2333H78.1478V46.088Z" fill="black"/>
<path d="M71.5202 78.1499H78.1478V64.4548H71.5202V78.1499Z" fill="black"/>
<path fill-rule="evenodd" clip-rule="evenodd" d="M45.8202 78.1499H39.0519V71.6106H45.8202V78.1499Z" fill="black"/>
<path fill-rule="evenodd" clip-rule="evenodd" d="M20.6549 59.2333V52.6364H27.2372V46.088L20.6549 46.088V52.6364H14.0273V59.2333V64.4548V71.6106V78.1499H20.6549V71.6106V64.4548V59.2333ZM32.6298 52.6364V46.088L39.0519 46.088V52.6364H32.6298ZM45.8202 52.6364H39.0519V52.6606H45.8202V52.6364ZM45.8202 46.088L45.8399 46.088V52.6364H45.8202V46.088Z" fill="black"/>
<path d="M45.8202 46.088H39.0519V52.6364H45.8202V46.088Z" fill="black"/>
<path d="M20.6549 46.088H14.0273V52.6364H20.6549V46.088Z" fill="black"/>
<path d="M39.0519 59.2333H45.8202V52.6606H39.0519V59.2333Z" fill="black"/>
<path d="M45.8202 64.4548H39.0519V71.6106H45.8202V64.4548Z" fill="black"/>
<path d="M20.6549 71.6106V78.1499L27.2372 78.1498V71.6106H20.6549Z" fill="black"/>
<path d="M39.0519 78.1499V71.6106H32.6298V78.1498L39.0519 78.1499Z" fill="black"/>
</svg>
