<svg width="219" height="159" viewBox="0 0 219 159" fill="none" xmlns="http://www.w3.org/2000/svg">
<path d="M24.4272 158.314L22.0722 150.714H8.7273L6.37231 158.314H0L10.5282 125.678H20.456L31.0304 158.314H24.4272ZM10.2973 145.726H20.5022L15.4228 129.222L10.2973 145.726Z" fill="white"/>
<path d="M47.3407 133.371C48.295 133.371 49.2185 133.495 50.1112 133.744V139.199C48.5413 138.981 47.3253 138.872 46.4633 138.872C44.4931 138.872 43.0309 139.478 42.0766 140.691C41.1531 141.903 40.6913 143.876 40.6913 146.612V158.314H34.4575L34.5037 133.884H40.2295V138.593C41.6456 135.112 44.016 133.371 47.3407 133.371Z" fill="white"/>
<path d="M52.4229 146.099C52.4229 142.027 53.5004 138.888 55.6553 136.681C57.8102 134.443 60.7501 133.324 64.4749 133.324C67.5533 133.324 70.1238 134.117 72.1863 135.702C74.2797 137.287 75.4956 139.509 75.8343 142.369L69.9237 142.882C69.6159 141.359 68.9694 140.193 67.9843 139.385C67.03 138.577 65.8602 138.173 64.4749 138.173C62.6587 138.173 61.2118 138.872 60.1344 140.271C59.0877 141.67 58.5644 143.612 58.5644 146.099C58.5644 148.585 59.1031 150.528 60.1805 151.926C61.258 153.325 62.7356 154.024 64.6135 154.024C66.1219 154.024 67.3532 153.605 68.3076 152.766C69.2619 151.895 69.8929 150.683 70.2008 149.129L76.1575 149.502C75.8189 152.486 74.6029 154.801 72.5096 156.449C70.4163 158.065 67.7842 158.873 64.6135 158.873C60.827 158.873 57.8409 157.77 55.6553 155.563C53.5004 153.356 52.4229 150.201 52.4229 146.099Z" fill="white"/>
<path d="M80.3631 158.314V124H86.5507V137.427C88.2747 134.692 90.9529 133.324 94.5854 133.324C97.356 133.324 99.4339 134.132 100.819 135.749C102.235 137.334 102.943 139.665 102.943 142.742V158.314H96.8019V144.653C96.8019 142.602 96.4324 141.064 95.6936 140.038C94.9856 138.981 93.8158 138.453 92.1842 138.453C90.368 138.453 88.9673 139.09 87.9822 140.364C87.0279 141.607 86.5507 143.301 86.5507 145.446V158.314H80.3631Z" fill="white"/>
<path d="M108.365 130.434V124.42H114.876V130.434H108.365ZM108.55 158.314V133.884H114.692V158.314H108.55Z" fill="white"/>
<path d="M118.558 150.901L124.238 150.714C124.546 153.201 126.424 154.444 129.872 154.444C133.104 154.444 134.72 153.589 134.72 151.88C134.72 151.227 134.412 150.683 133.797 150.248C133.181 149.813 132.134 149.378 130.657 148.943L125.346 147.497C121.344 146.409 119.343 144.047 119.343 140.411C119.343 137.987 120.267 136.199 122.114 135.049C123.961 133.899 126.316 133.324 129.179 133.324C132.165 133.324 134.674 133.961 136.706 135.236C138.737 136.479 139.892 138.406 140.169 141.017L134.535 141.297C134.351 140.147 133.781 139.276 132.827 138.686C131.873 138.064 130.657 137.753 129.179 137.753C127.978 137.722 127.055 137.924 126.408 138.359C125.762 138.795 125.439 139.416 125.439 140.224C125.439 141.468 126.562 142.4 128.81 143.022L134.166 144.467C138.568 145.617 140.769 147.979 140.769 151.553C140.769 153.978 139.753 155.812 137.722 157.055C135.721 158.267 133.042 158.873 129.687 158.873C122.699 158.873 118.989 156.216 118.558 150.901Z" fill="white"/>
<path d="M144.801 130.434V124.42H151.312V130.434H144.801ZM144.986 158.314V133.884H151.127V158.314H144.986Z" fill="white"/>
<path d="M156.888 158.314V133.884H162.66V138.173C164.26 134.941 167.077 133.324 171.11 133.324C173.88 133.324 175.958 134.132 177.344 135.749C178.76 137.334 179.468 139.665 179.468 142.742V158.314H173.326V144.653C173.326 142.602 172.957 141.064 172.218 140.038C171.51 138.981 170.34 138.453 168.709 138.453C166.892 138.453 165.492 139.09 164.507 140.364C163.552 141.607 163.075 143.301 163.075 145.446V158.314H156.888Z" fill="white"/>
<path d="M183.874 151.647C183.874 147.14 187.26 144.56 194.033 143.907L200.359 143.255V142.043C200.359 140.737 199.974 139.696 199.204 138.919C198.435 138.142 197.265 137.753 195.695 137.753C194.31 137.753 193.171 138.064 192.278 138.686C191.416 139.307 190.939 140.224 190.846 141.437H185.213C185.305 138.608 186.321 136.557 188.261 135.282C190.2 133.977 192.678 133.324 195.695 133.324C199.174 133.324 201.852 134.164 203.73 135.842C205.607 137.52 206.546 140.022 206.546 143.348V158.314H200.774V153.884C199.081 157.21 196.141 158.873 191.955 158.873C189.338 158.873 187.337 158.205 185.952 156.868C184.567 155.532 183.874 153.791 183.874 151.647ZM190.015 151.32C190.015 152.284 190.339 153.061 190.985 153.651C191.662 154.242 192.647 154.537 193.94 154.537C195.849 154.537 197.388 153.931 198.558 152.719C199.758 151.476 200.359 149.953 200.359 148.15V147.078L194.818 147.637C191.616 147.948 190.015 149.176 190.015 151.32Z" fill="white"/>
<path d="M211.992 124H218.18V158.314H211.992V124Z" fill="white"/>
<path d="M63 20.0387C63 8.97162 71.9716 0 83.0387 0H135.139C146.206 0 155.178 8.97162 155.178 20.0387V72.1392C155.178 83.2063 146.206 92.1779 135.139 92.1779H83.0387C71.9716 92.1779 63 83.2063 63 72.1392V20.0387Z" fill="#FFCC50"/>
<path d="M85.9741 38.6232L87.5837 33.7223H81.1901L79.5402 38.6232H85.9741Z" fill="black"/>
<path d="M98.0458 33.7223L99.6553 38.6232H106.315L104.658 33.7223H98.0458Z" fill="black"/>
<path fill-rule="evenodd" clip-rule="evenodd" d="M102.07 46.0891L99.6553 38.6232H106.315L108.839 46.0891H102.07ZM79.5402 38.6232L77.0269 46.0891H83.5598L85.9741 38.6232H79.5402Z" fill="black"/>
<path d="M97.9984 14.0272H87.8204L81.2996 33.397H87.6891L92.8384 17.5082L97.9413 33.397H104.548L97.9984 14.0272Z" fill="black"/>
<path d="M98.0458 33.7223H104.658L104.548 33.397H97.9413L98.0458 33.7223Z" fill="black"/>
<path d="M81.1901 33.7223H87.5837L87.6891 33.397H81.2996L81.1901 33.7223Z" fill="black"/>
<path d="M92.8147 38.6232L92.8147 33.7223L91.1046 36.1728L89.3944 38.6232H91.1046H92.8147Z" fill="black"/>
<path d="M92.8147 33.7223L92.8147 38.6232H94.5249H96.235L94.5249 36.1728L92.8147 33.7223Z" fill="black"/>
<path d="M91.1046 36.1728L92.8147 33.7223H91.9596L91.1046 35.356V36.1728Z" fill="black"/>
<path d="M92.8147 33.7223L94.5249 36.1728V35.356L93.6698 33.7223H92.8147Z" fill="black"/>
<path d="M91.1046 36.1728V35.356L89.3944 38.6232L91.1046 36.1728Z" fill="black"/>
<path d="M94.5249 35.356V36.1728L96.235 38.6232L94.5249 35.356Z" fill="black"/>
<path fill-rule="evenodd" clip-rule="evenodd" d="M141.151 46.0892H134.549L124.44 33.6766V28.8673H126.996C128.921 28.8673 130.42 28.4551 131.493 27.6307C132.598 26.8062 133.15 25.6001 133.15 24.0122C133.15 22.4244 132.598 21.2183 131.493 20.3938C130.42 19.5694 128.921 19.1572 126.996 19.1572H124.44V14.0273H127.801C129.978 14.0273 131.935 14.3479 133.671 14.9891C135.407 15.5998 136.858 16.6838 138.026 18.2411C139.194 19.7984 139.778 21.7221 139.778 24.0122C139.778 26.7909 139.02 28.9437 137.505 30.4704C135.99 31.9972 133.603 33.2491 131.046 33.6766L141.151 46.0892ZM119.057 28.8673V19.1572V14.0273H112.429V46.0892H119.057V33.6766V28.8673Z" fill="black"/>
<path fill-rule="evenodd" clip-rule="evenodd" d="M119.071 64.4549H129.128V59.2334H119.071V46.088H112.443V78.1499H119.071V64.4549Z" fill="black"/>
<path d="M141.147 46.088H134.52V59.2334H141.147V46.088Z" fill="black"/>
<path d="M134.52 78.1499H141.147V64.4549H134.52V78.1499Z" fill="black"/>
<path fill-rule="evenodd" clip-rule="evenodd" d="M108.82 78.1499H102.051V71.6106H108.82V78.1499Z" fill="black"/>
<path fill-rule="evenodd" clip-rule="evenodd" d="M83.6544 59.2334V52.6365H90.2367V46.088L83.6544 46.088V52.6365H77.0269V59.2334V64.4549V71.6106V78.1499H83.6544V71.6106V64.4549V59.2334ZM95.6293 52.6365V46.088L102.051 46.088V52.6365H95.6293ZM108.82 52.6365H102.051V52.6607H108.82V52.6365ZM108.82 46.088L108.839 46.088V52.6365H108.82V46.088Z" fill="black"/>
<path d="M108.82 46.088H102.051V52.6365H108.82V46.088Z" fill="black"/>
<path d="M83.6544 46.088H77.0269V52.6365H83.6544V46.088Z" fill="black"/>
<path d="M102.051 59.2334H108.82V52.6607H102.051V59.2334Z" fill="black"/>
<path d="M108.82 64.4549H102.051V71.6106H108.82V64.4549Z" fill="black"/>
<path d="M83.6544 71.6106V78.1499L90.2367 78.1498V71.6106H83.6544Z" fill="black"/>
<path d="M102.051 78.1499V71.6106H95.6293V78.1498L102.051 78.1499Z" fill="black"/>
</svg>
