<svg width="93" height="93" viewBox="0 0 93 93" fill="none" xmlns="http://www.w3.org/2000/svg">
<path d="M0 20.0387C0 8.97162 8.97162 0 20.0387 0H72.1392C83.2063 0 92.1779 8.97162 92.1779 20.0387V72.1392C92.1779 83.2063 83.2063 92.1779 72.1392 92.1779H20.0387C8.97162 92.1779 0 83.2063 0 72.1392V20.0387Z" fill="black"/>
<path d="M22.9741 38.6233L24.5837 33.7224H18.1901L16.5402 38.6233H22.9741Z" fill="#FFCC50"/>
<path d="M35.0458 33.7224L36.6553 38.6233H43.3149L41.6578 33.7224H35.0458Z" fill="#FFCC50"/>
<path fill-rule="evenodd" clip-rule="evenodd" d="M39.0697 46.0891L36.6553 38.6233H43.3149L45.8393 46.0891H39.0697ZM16.5402 38.6233L14.0269 46.0891H20.5598L22.9741 38.6233H16.5402Z" fill="#FFCC50"/>
<path d="M34.9984 14.0272H24.8204L18.2996 33.397H24.6891L29.8384 17.5082L34.9413 33.397H41.5478L34.9984 14.0272Z" fill="#FFCC50"/>
<path d="M35.0458 33.7224H41.6578L41.5478 33.397H34.9413L35.0458 33.7224Z" fill="#FFCC50"/>
<path d="M18.1901 33.7224H24.5837L24.6891 33.397H18.2996L18.1901 33.7224Z" fill="#FFCC50"/>
<path d="M29.8147 38.6233L29.8147 33.7224L28.1046 36.1728L26.3944 38.6233H28.1046H29.8147Z" fill="#FFCC50"/>
<path d="M29.8147 33.7224L29.8147 38.6233H31.5249H33.235L31.5249 36.1728L29.8147 33.7224Z" fill="#FFCC50"/>
<path d="M28.1046 36.1728L29.8147 33.7224H28.9596L28.1046 35.356V36.1728Z" fill="#FFCC50"/>
<path d="M29.8147 33.7224L31.5249 36.1728V35.356L30.6698 33.7224H29.8147Z" fill="#FFCC50"/>
<path d="M28.1046 36.1728V35.356L26.3944 38.6233L28.1046 36.1728Z" fill="#FFCC50"/>
<path d="M31.5249 35.356V36.1728L33.235 38.6233L31.5249 35.356Z" fill="#FFCC50"/>
<path fill-rule="evenodd" clip-rule="evenodd" d="M78.1505 46.0892H71.5493L61.4395 33.6767V28.8674H63.9959C65.921 28.8674 67.4201 28.4552 68.4932 27.6308C69.5978 26.8063 70.1501 25.6002 70.1501 24.0123C70.1501 22.4245 69.5978 21.2184 68.4932 20.3939C67.4201 19.5695 65.921 19.1573 63.9959 19.1573H61.4395V14.0273H64.8007C66.9783 14.0273 68.935 14.348 70.6708 14.9892C72.4066 15.5999 73.8584 16.6839 75.0261 18.2412C76.1938 19.7985 76.7777 21.7222 76.7777 24.0123C76.7777 26.791 76.0202 28.9438 74.5053 30.4705C72.9905 31.9973 70.6025 33.2492 68.0462 33.6767L78.1505 46.0892ZM56.0568 28.8674V19.1573V14.0273H49.4292V46.0892H56.0568V33.6767V28.8674Z" fill="#FFCC50"/>
<path fill-rule="evenodd" clip-rule="evenodd" d="M56.071 64.4549H66.1275V59.2334H56.071V46.088H49.4434V78.1499H56.071V64.4549Z" fill="#FFCC50"/>
<path d="M78.1473 46.088H71.5197V59.2334H78.1473V46.088Z" fill="#FFCC50"/>
<path d="M71.5197 78.1499H78.1473V64.4549H71.5197V78.1499Z" fill="#FFCC50"/>
<path fill-rule="evenodd" clip-rule="evenodd" d="M45.8197 78.1499H39.0515V71.6107H45.8197V78.1499Z" fill="#FFCC50"/>
<path fill-rule="evenodd" clip-rule="evenodd" d="M20.6544 59.2334V52.6365H27.2367V46.088L20.6544 46.088V52.6365H14.0269V59.2334V64.4549V71.6107V78.1499H20.6544V71.6107V64.4549V59.2334ZM32.6293 52.6365V46.088L39.0515 46.088V52.6365H32.6293ZM45.8197 52.6365H39.0515V52.6607H45.8197V52.6365ZM45.8197 46.088L45.8394 46.088V52.6365H45.8197V46.088Z" fill="#FFCC50"/>
<path d="M45.8197 46.088H39.0515V52.6365H45.8197V46.088Z" fill="#FFCC50"/>
<path d="M20.6544 46.088H14.0269V52.6365H20.6544V46.088Z" fill="#FFCC50"/>
<path d="M39.0515 59.2334H45.8197V52.6607H39.0515V59.2334Z" fill="#FFCC50"/>
<path d="M45.8197 64.4549H39.0515V71.6107H45.8197V64.4549Z" fill="#FFCC50"/>
<path d="M20.6544 71.6107V78.1499L27.2367 78.1499V71.6107H20.6544Z" fill="#FFCC50"/>
<path d="M39.0515 78.1499V71.6107H32.6293V78.1499L39.0515 78.1499Z" fill="#FFCC50"/>
</svg>
