<svg width="219" height="35" viewBox="0 0 219 35" fill="none" xmlns="http://www.w3.org/2000/svg">
<path d="M24.4272 34.3136L22.0722 26.7142H8.7273L6.37231 34.3136H0L10.5282 1.67838H20.456L31.0304 34.3136H24.4272ZM10.2973 21.7257H20.5022L15.4228 5.22163L10.2973 21.7257Z" fill="white"/>
<path d="M47.3407 9.37096C48.295 9.37096 49.2185 9.49528 50.1112 9.74393V15.1987C48.5413 14.9811 47.3253 14.8723 46.4633 14.8723C44.4931 14.8723 43.0309 15.4784 42.0766 16.6906C41.1531 17.9027 40.6913 19.8764 40.6913 22.6115V34.3136H34.4575L34.5037 9.8838H40.2295V14.5926C41.6456 11.1115 44.016 9.37096 47.3407 9.37096Z" fill="white"/>
<path d="M52.4229 22.0987C52.4229 18.027 53.5004 14.8879 55.6553 12.6811C57.8102 10.4433 60.7501 9.32434 64.4749 9.32434C67.5533 9.32434 70.1238 10.1169 72.1863 11.702C74.2797 13.2872 75.4956 15.5095 75.8343 18.3689L69.9237 18.8818C69.6159 17.3588 68.9694 16.1933 67.9843 15.3852C67.03 14.577 65.8602 14.173 64.4749 14.173C62.6587 14.173 61.2118 14.8723 60.1344 16.271C59.0877 17.6696 58.5644 19.6122 58.5644 22.0987C58.5644 24.5852 59.1031 26.5277 60.1805 27.9264C61.258 29.325 62.7356 30.0244 64.6135 30.0244C66.1219 30.0244 67.3532 29.6048 68.3076 28.7656C69.2619 27.8953 69.8929 26.6831 70.2008 25.1291L76.1575 25.5021C75.8189 28.4858 74.6029 30.8014 72.5096 32.4487C70.4163 34.0649 67.7842 34.873 64.6135 34.873C60.827 34.873 57.8409 33.7696 55.6553 31.5629C53.5004 29.3561 52.4229 26.2014 52.4229 22.0987Z" fill="white"/>
<path d="M80.3631 34.3136V0H86.5507V13.427C88.2747 10.6919 90.9529 9.32434 94.5854 9.32434C97.356 9.32434 99.4339 10.1324 100.819 11.7487C102.235 13.3338 102.943 15.6649 102.943 18.7419V34.3136H96.8019V20.6534C96.8019 18.602 96.4324 17.0635 95.6936 16.0379C94.9856 14.9811 93.8158 14.4527 92.1842 14.4527C90.368 14.4527 88.9673 15.0899 87.9822 16.3642C87.0279 17.6075 86.5507 19.3014 86.5507 21.446V34.3136H80.3631Z" fill="white"/>
<path d="M108.365 6.43379V0.419595H114.876V6.43379H108.365ZM108.55 34.3136V9.8838H114.692V34.3136H108.55Z" fill="white"/>
<path d="M118.558 26.9007L124.238 26.7142C124.546 29.2007 126.424 30.444 129.872 30.444C133.104 30.444 134.72 29.5892 134.72 27.8798C134.72 27.2271 134.412 26.6831 133.797 26.248C133.181 25.8129 132.134 25.3777 130.657 24.9426L125.346 23.4973C121.344 22.4095 119.343 20.0473 119.343 16.4108C119.343 13.9865 120.267 12.1993 122.114 11.0493C123.961 9.89934 126.316 9.32434 129.179 9.32434C132.165 9.32434 134.674 9.9615 136.706 11.2358C138.737 12.4791 139.892 14.4061 140.169 17.0169L134.535 17.2966C134.351 16.1466 133.781 15.2764 132.827 14.6858C131.873 14.0642 130.657 13.7534 129.179 13.7534C127.978 13.7223 127.055 13.9243 126.408 14.3595C125.762 14.7946 125.439 15.4162 125.439 16.2243C125.439 17.4676 126.562 18.4 128.81 19.0216L134.166 20.4669C138.568 21.6169 140.769 23.9791 140.769 27.5534C140.769 29.9777 139.753 31.8115 137.722 33.0548C135.721 34.2669 133.042 34.873 129.687 34.873C122.699 34.873 118.989 32.2156 118.558 26.9007Z" fill="white"/>
<path d="M144.801 6.43379V0.419595H151.312V6.43379H144.801ZM144.986 34.3136V9.8838H151.127V34.3136H144.986Z" fill="white"/>
<path d="M156.888 34.3136V9.8838H162.66V14.173C164.26 10.9406 167.077 9.32434 171.11 9.32434C173.88 9.32434 175.958 10.1324 177.344 11.7487C178.76 13.3338 179.468 15.6649 179.468 18.7419V34.3136H173.326V20.6534C173.326 18.602 172.957 17.0635 172.218 16.0379C171.51 14.9811 170.34 14.4527 168.709 14.4527C166.892 14.4527 165.492 15.0899 164.507 16.3642C163.552 17.6075 163.075 19.3014 163.075 21.446V34.3136H156.888Z" fill="white"/>
<path d="M183.874 27.6467C183.874 23.1399 187.26 20.5602 194.033 19.9075L200.359 19.2548V18.0426C200.359 16.7372 199.974 15.696 199.204 14.9189C198.435 14.1419 197.265 13.7534 195.695 13.7534C194.31 13.7534 193.171 14.0642 192.278 14.6858C191.416 15.3075 190.939 16.2243 190.846 17.4365H185.213C185.305 14.6081 186.321 12.5568 188.261 11.2824C190.2 9.97704 192.678 9.32434 195.695 9.32434C199.174 9.32434 201.852 10.1635 203.73 11.8419C205.607 13.5203 206.546 16.0223 206.546 19.348V34.3136H200.774V29.8845C199.081 33.2102 196.141 34.873 191.955 34.873C189.338 34.873 187.337 34.2048 185.952 32.8683C184.567 31.5318 183.874 29.7913 183.874 27.6467ZM190.015 27.3203C190.015 28.2838 190.339 29.0608 190.985 29.6514C191.662 30.2419 192.647 30.5372 193.94 30.5372C195.849 30.5372 197.388 29.9311 198.558 28.719C199.758 27.4757 200.359 25.9527 200.359 24.15V23.0777L194.818 23.6372C191.616 23.948 190.015 25.1757 190.015 27.3203Z" fill="white"/>
<path d="M211.992 0H218.18V34.3136H211.992V0Z" fill="white"/>
</svg>
